control3min_grf.mot
version=1
nRows=27
nColumns 19
inDegrees=yes
endheader
time	1_ground_force_vx	1_ground_force_vy	1_ground_force_vz	1_ground_force_px	1_ground_force_py	1_ground_force_pz	1_ground_torque_x	1_ground_torque_y	1_ground_torque_z	2_ground_force_vx	2_ground_force_vy	2_ground_force_vz	2_ground_force_px	2_ground_force_py	2_ground_force_pz	2_ground_torque_x	2_ground_torque_y	2_ground_torque_z
            0.005000	           -8.694568	         1126.426709	         -109.195369	           -0.250798	            0.006318	           -0.428318	           -0.061803	            8.006845	           -0.776180	           13.503130	         1088.510857	          121.901985	           -0.288015	            0.005684	           -0.765012	           -0.085231	           -6.870596	           -0.769436
            0.005500	           -9.657238	         1126.246349	         -109.193752	           -0.250727	            0.006318	           -0.428300	           -0.066443	            7.748737	           -0.751269	           13.213226	         1090.905193	          121.535221	           -0.287908	            0.005684	           -0.765006	           -0.083840	           -6.921925	           -0.771156
            0.006000	          -10.160255	         1124.982531	         -108.785213	           -0.250553	            0.006319	           -0.428499	           -0.069684	            7.715693	           -0.746103	           13.304603	         1091.460692	          120.786303	           -0.287838	            0.005684	           -0.764854	           -0.085837	           -7.041734	           -0.779272
            0.006500	          -11.168070	         1125.341552	         -108.460168	           -0.250460	            0.006318	           -0.428322	           -0.077723	            7.831733	           -0.754821	           13.068756	         1091.830181	          120.177644	           -0.287851	            0.005684	           -0.764825	           -0.085182	           -7.116518	           -0.783314
            0.007000	          -12.129566	         1123.717494	         -108.097888	           -0.250255	            0.006319	           -0.428382	           -0.086503	            8.013849	           -0.770906	           12.413439	         1091.644403	          119.989553	           -0.287791	            0.005684	           -0.764655	           -0.080998	           -7.122994	           -0.782933
            0.007500	          -12.635366	         1123.359557	         -108.740158	           -0.250145	            0.006319	           -0.428484	           -0.091825	            8.163829	           -0.790251	           12.078035	         1093.669999	          119.668431	           -0.287676	            0.005684	           -0.764712	           -0.078473	           -7.105725	           -0.777502
            0.008000	          -13.231990	         1122.639633	         -109.062766	           -0.250062	            0.006319	           -0.428478	           -0.095828	            8.130321	           -0.789849	           11.511746	         1094.773772	          119.437965	           -0.287606	            0.005685	           -0.764761	           -0.074676	           -7.101770	           -0.774791
            0.008500	          -13.966176	         1122.100101	         -109.384260	           -0.249950	            0.006318	           -0.428291	           -0.098053	            7.877952	           -0.767956	           11.322250	         1095.326172	          119.205382	           -0.287471	            0.005685	           -0.764624	           -0.073981	           -7.156951	           -0.778898
            0.009000	          -14.837745	         1121.380172	         -109.660317	           -0.249774	            0.006319	           -0.428400	           -0.101768	            7.691259	           -0.752132	           10.997439	         1094.405851	          118.779876	           -0.287423	            0.005684	           -0.764496	           -0.072941	           -7.258657	           -0.787809
            0.009500	          -16.074625	         1120.297220	         -109.386755	           -0.249662	            0.006319	           -0.428380	           -0.108893	            7.589111	           -0.741007	           10.902039	         1094.776929	          117.936525	           -0.287320	            0.005685	           -0.764434	           -0.072683	           -7.298757	           -0.786270
            0.010000	          -16.852963	         1119.213916	         -109.068464	           -0.249440	            0.006319	           -0.428375	           -0.117073	            7.774888	           -0.757670	           10.758564	         1095.515160	          117.329155	           -0.287210	            0.005685	           -0.764378	           -0.072622	           -7.394942	           -0.791995
            0.010500	          -17.952541	         1118.131384	         -108.886947	           -0.249331	            0.006319	           -0.428394	           -0.127604	            7.947521	           -0.773953	           10.527555	         1094.594097	          117.138256	           -0.287155	            0.005685	           -0.764318	           -0.070908	           -7.372565	           -0.788977
            0.011000	          -18.915710	         1116.329857	         -109.213283	           -0.249056	            0.006319	           -0.428407	           -0.134209	            7.920460	           -0.774878	           10.243633	         1095.330984	          116.765579	           -0.286967	            0.005685	           -0.764294	           -0.068909	           -7.368255	           -0.785478
            0.011500	          -19.741972	         1115.430501	         -109.719519	           -0.249026	            0.006319	           -0.428284	           -0.137445	            7.765682	           -0.763873	            9.776983	         1094.778225	          116.435304	           -0.286930	            0.005685	           -0.764239	           -0.065491	           -7.333381	           -0.779943
            0.012000	          -20.339523	         1114.171824	         -110.457144	           -0.248876	            0.006318	           -0.428206	           -0.138281	            7.574863	           -0.750959	            9.408872	         1092.935008	          116.522748	           -0.286877	            0.005685	           -0.764241	           -0.063632	           -7.391533	           -0.788045
            0.012500	          -21.118915	         1113.270708	         -110.550779	           -0.248697	            0.006318	           -0.428166	           -0.140260	            7.393733	           -0.734218	            9.171656	         1093.673236	          115.821562	           -0.286694	            0.005686	           -0.764217	           -0.061597	           -7.345099	           -0.777856
            0.013000	          -22.311040	         1111.288569	         -110.785599	           -0.248605	            0.006318	           -0.428203	           -0.147106	            7.327198	           -0.730457	            9.223678	         1092.201451	          115.487782	           -0.286540	            0.005686	           -0.764141	           -0.062408	           -7.389892	           -0.781396
            0.013500	          -23.547871	         1109.304455	         -110.561754	           -0.248433	            0.006318	           -0.428243	           -0.157540	            7.421481	           -0.739681	            9.130459	         1092.018295	          115.064819	           -0.286467	            0.005686	           -0.764077	           -0.061717	           -7.381456	           -0.777776
            0.014000	          -24.877275	         1105.339350	         -110.850604	           -0.248324	            0.006320	           -0.428478	           -0.168600	            7.491185	           -0.751265	            9.272837	         1091.467902	          114.687364	           -0.286443	            0.005687	           -0.764129	           -0.062834	           -7.395940	           -0.777138
            0.014500	          -25.427505	         1105.339440	         -110.895090	           -0.248139	            0.006318	           -0.428161	           -0.172605	            7.503198	           -0.752771	            8.714544	         1090.361576	          114.495948	           -0.286328	            0.005687	           -0.764107	           -0.058845	           -7.362680	           -0.773135
            0.015000	          -26.298875	         1102.276420	         -111.272916	           -0.247943	            0.006319	           -0.428420	           -0.173297	            7.263461	           -0.733234	            8.205218	         1088.701931	          114.584109	           -0.286225	            0.005687	           -0.763980	           -0.054970	           -7.293659	           -0.767646
            0.015500	          -27.034133	         1101.378261	         -112.054507	           -0.247852	            0.006319	           -0.428266	           -0.170971	            6.965387	           -0.708660	            8.116773	         1087.228969	          114.438101	           -0.286113	            0.005688	           -0.764040	           -0.054036	           -7.238043	           -0.761852
            0.016000	          -27.538381	         1098.134304	         -112.296445	           -0.247631	            0.006319	           -0.428292	           -0.171897	            6.854636	           -0.700963	            7.555260	         1087.042692	          114.484619	           -0.286000	            0.005688	           -0.764146	           -0.050286	           -7.235052	           -0.761978
            0.016500	          -28.913066	         1096.691323	         -112.161659	           -0.247538	            0.006318	           -0.428128	           -0.178848	            6.783838	           -0.693802	            7.419218	         1085.754310	          114.151575	           -0.285790	            0.005689	           -0.764080	           -0.049228	           -7.204162	           -0.757415
            0.017000	          -29.462382	         1095.428527	         -111.936413	           -0.247281	            0.006318	           -0.428156	           -0.188181	            6.996663	           -0.714954	            7.381529	         1083.177221	          113.813907	           -0.285831	            0.005688	           -0.763914	           -0.049124	           -7.208527	           -0.757430
            0.017500	          -30.792070	         1093.626535	         -112.170134	           -0.247186	            0.006318	           -0.428063	           -0.195578	            6.946249	           -0.712457	            7.200009	         1081.519932	          113.573424	           -0.285575	            0.005689	           -0.763944	           -0.047252	           -7.097832	           -0.745363
            0.018000	          -31.433379	         1090.922334	         -112.180136	           -0.246974	            0.006318	           -0.428064	           -0.198097	            6.875111	           -0.706971	            6.827930	         1080.781514	          113.711748	           -0.285593	            0.005689	           -0.764051	           -0.044848	           -7.098882	           -0.746891
